<svg version="1.1" xmlns="http://www.w3.org/2000/svg" width="400" height="400" viewBox="0 0 400 400"><path d="M0 0h400v400H0z" fill="#000000"/><path d="M28.519 85.926c3.722 -0.086 7.443 -0.152 11.166 -0.192 1.729 -0.019 3.457 -0.046 5.185 -0.087 1.669 -0.041 3.337 -0.063 5.007 -0.072q0.954 -0.01 1.907 -0.04c4.976 -0.151 4.976 -0.151 6.569 1.181 0.672 0.947 1.164 1.861 1.648 2.914a67.778 67.778 0 0 0 1.082 1.68q0.525 0.838 1.047 1.677 0.584 0.931 1.169 1.862l0.584 0.93a362.963 362.963 0 0 0 2.506 3.898c1.669 2.57 3.325 5.149 4.977 7.731l0.758 1.185 3.1 4.848c2.56 4.005 5.122 8.009 7.71 11.997 1.607 2.48 3.191 4.976 4.776 7.471 1.295 2.037 2.597 4.07 3.912 6.095 2.953 4.55 5.867 9.125 8.788 13.695 2.56 4.005 5.122 8.01 7.71 11.997 1.607 2.48 3.191 4.976 4.776 7.471a815.556 815.556 0 0 0 4.39 6.832c1.035 1.595 2.061 3.195 3.083 4.799l0.79 1.238q0.766 1.203 1.53 2.406A160.741 160.741 0 0 0 127.407 194.444c2.412 -3.12 4.807 -6.246 7.084 -9.466 1.943 -2.744 3.949 -5.44 5.948 -8.143 1.09 -1.475 2.177 -2.952 3.264 -4.428l1.296 -1.759 0.648 -0.88 49.259 -66.852q0.647 -0.878 1.294 -1.756l3.282 -4.454 0.664 -0.904a127.778 127.778 0 0 1 1.335 -1.771c1.04 -1.367 1.941 -2.659 2.652 -4.227 0.828 -1.683 1.53 -3.038 3.273 -3.879 4.022 -0.682 8.178 -0.337 12.222 0 -1.07 1.979 -2.292 3.719 -3.68 5.486a209.259 209.259 0 0 0 -4.954 6.643c-1.792 2.505 -3.636 4.964 -5.509 7.407 -1.773 2.312 -3.517 4.635 -5.195 7.017 -1.327 1.877 -2.705 3.716 -4.088 5.552a832.222 832.222 0 0 0 -5.486 7.361A6464.568 6464.568 0 0 0 188.148 128.889a1315.926 1315.926 0 0 1 -8.664 11.673C177.041 143.815 174.631 147.091 172.222 150.37a1315.926 1315.926 0 0 1 -8.664 11.673C161.115 165.296 158.705 168.573 156.296 171.852c-2.635 3.585 -5.276 7.166 -7.95 10.722 -2.311 3.076 -4.586 6.179 -6.864 9.278 -2.824 3.839 -5.648 7.677 -8.519 11.481 1.428 2.697 3.061 5.234 4.746 7.778q0.847 1.288 1.694 2.577l0.433 0.659c1.447 2.204 2.867 4.425 4.285 6.649 2.592 4.062 5.219 8.101 7.856 12.134 2.544 3.896 5.056 7.811 7.561 11.731a1108.519 1108.519 0 0 0 6.52 10.078c1.701 2.603 3.381 5.218 5.054 7.839 2.608 4.085 5.25 8.147 7.902 12.204 2.544 3.896 5.056 7.811 7.561 11.731 2.64 4.131 5.312 8.239 7.994 12.343 2.544 3.896 5.056 7.811 7.561 11.731 2.64 4.131 5.312 8.239 7.994 12.343 2.869 4.394 5.7 8.811 8.522 13.235 1.281 2.006 2.576 3.996 3.931 5.953C222.963 342.963 222.963 342.963 222.963 343.704c-3.683 0.173 -7.364 0.304 -11.05 0.384 -1.712 0.039 -3.422 0.091 -5.133 0.175 -11.002 0.529 -11.002 0.529 -13.768 -1.237 -1.657 -1.683 -2.573 -3.625 -3.394 -5.817 -0.491 -1.249 -1.153 -2.233 -1.917 -3.336l-1.336 -2.09 -1.504 -2.354 -0.761 -1.191c-4.585 -7.18 -4.585 -7.18 -9.203 -14.338 -1.78 -2.746 -3.54 -5.506 -5.303 -8.263A1194.074 1194.074 0 0 0 165.37 299.074c-1.939 -2.989 -3.858 -5.991 -5.777 -8.993A1194.074 1194.074 0 0 0 155.37 283.519c-1.939 -2.989 -3.858 -5.991 -5.777 -8.993A1194.074 1194.074 0 0 0 145.37 267.963c-1.939 -2.989 -3.858 -5.991 -5.777 -8.993A1194.074 1194.074 0 0 0 135.37 252.407a1374.074 1374.074 0 0 1 -5 -7.778 1410.741 1410.741 0 0 0 -5.648 -8.78 330.741 330.741 0 0 1 -2.353 -3.669l-0.466 -0.736a238.519 238.519 0 0 1 -0.861 -1.371c-0.702 -1.158 -0.702 -1.158 -1.783 -1.925l-0.224 0.736c-0.727 1.569 -1.775 2.805 -2.854 4.148 -1.791 2.263 -3.534 4.547 -5.209 6.898 -1.783 2.498 -3.619 4.949 -5.486 7.384 -1.765 2.301 -3.499 4.614 -5.166 6.987 -1.414 2 -2.905 3.94 -4.395 5.884 -1.796 2.343 -3.564 4.696 -5.264 7.109 -1.327 1.878 -2.705 3.716 -4.088 5.553a833.704 833.704 0 0 0 -5.486 7.361l-0.645 0.877a2857.037 2857.037 0 0 0 -3.193 4.351 564.444 564.444 0 0 1 -6.972 9.31c-1.764 2.305 -3.5 4.621 -5.171 6.994 -1.327 1.878 -2.705 3.716 -4.088 5.552a833.704 833.704 0 0 0 -5.486 7.361l-0.645 0.877a2857.037 2857.037 0 0 0 -3.193 4.351 564.815 564.815 0 0 1 -6.972 9.31c-2.231 2.913 -2.231 2.913 -4.391 5.879a62.963 62.963 0 0 1 -0.9 1.23c-0.812 1.097 -1.435 2.149 -1.983 3.401C36.601 341.427 35.843 342.815 34.074 343.704c-4.015 0.701 -8.184 0.337 -12.222 0 0.496 -1.054 1.059 -1.97 1.752 -2.905l0.615 -0.832c0.22 -0.294 0.44 -0.589 0.666 -0.893l0.696 -0.939c1.881 -2.535 3.776 -5.059 5.673 -7.582a856.296 856.296 0 0 0 5.391 -7.27Q38.678 320.519 40.741 317.778c1.601 -2.129 3.189 -4.267 4.769 -6.412l0.659 -0.894q1.629 -2.214 3.253 -4.431c2.541 -3.464 5.122 -6.894 7.734 -10.305a184.444 184.444 0 0 0 4.376 -5.963c1.662 -2.35 3.428 -4.622 5.179 -6.906 1.376 -1.799 2.73 -3.606 4.031 -5.459 1.795 -2.556 3.699 -5.026 5.599 -7.504 1.376 -1.799 2.73 -3.606 4.031 -5.459 1.795 -2.556 3.699 -5.026 5.599 -7.504 1.376 -1.799 2.73 -3.606 4.031 -5.459 1.795 -2.556 3.699 -5.026 5.599 -7.504 1.376 -1.799 2.73 -3.606 4.031 -5.459 1.793 -2.553 3.694 -5.02 5.591 -7.494a201.852 201.852 0 0 0 4.684 -6.367c1.213 -1.719 2.486 -3.384 3.799 -5.027 -1.299 -2.539 -2.76 -4.931 -4.357 -7.289 -1.418 -2.099 -2.783 -4.229 -4.138 -6.369 -1.526 -2.406 -3.055 -4.81 -4.606 -7.199 -1.954 -3.011 -3.888 -6.036 -5.821 -9.06a1163.704 1163.704 0 0 0 -4.271 -6.634c-1.769 -2.726 -3.513 -5.467 -5.255 -8.21a852.222 852.222 0 0 0 -4.394 -6.837c-1.531 -2.362 -3.048 -4.733 -4.564 -7.105a1375.926 1375.926 0 0 0 -5 -7.778c-2.936 -4.527 -5.835 -9.079 -8.742 -13.626 -2.544 -3.979 -5.087 -7.957 -7.658 -11.919 -1.78 -2.747 -3.54 -5.506 -5.303 -8.263A1197.407 1197.407 0 0 0 45.37 112.778a1440.37 1440.37 0 0 1 -4.884 -7.593c-0.374 -0.585 -0.374 -0.585 -0.756 -1.181q-1.959 -3.063 -3.916 -6.129l-0.79 -1.236q-0.739 -1.157 -1.477 -2.315c-0.953 -1.491 -1.905 -2.98 -2.898 -4.444l-0.823 -1.215 -0.757 -1.106C28.519 86.667 28.519 86.667 28.519 85.926" fill="#FDFDFD"/><path d="m224.372 85.51 1.425 0 0.793 -0.001q1.333 -0.001 2.665 0.003l1.917 -0.001q2.646 -0.001 5.293 0.003 2.849 0.002 5.698 0.001 4.94 0 9.881 0.003 7.143 0.004 14.286 0.004 11.588 0.001 23.176 0.007a92786.296 92786.296 0 0 0 30.878 0.009q28.883 0.006 57.765 0.019v10H312.963v248.148h-24.444V95.556H222.963c0 -9.984 0 -9.984 1.409 -10.046" fill="#FDFDFD"/></svg>
